<svg xmlns="http://www.w3.org/2000/svg" viewBox="0 0 117.54 118.59"><path d="M117.51,56.62A58.78,58.78,0,0,0,59.12,0h-.29A58.79,58.79,0,0,0,7.2,87L2,118.08a.62.62,0,0,0,0,.19.56.56,0,0,0,.09.17.33.33,0,0,0,.15.11.41.41,0,0,0,.19,0h.09l30.76-6.84a58.64,58.64,0,0,0,25.47,5.79h1.68A58.76,58.76,0,0,0,117.5,56.62h0Zm-57.34,50.7H58.78a48.6,48.6,0,0,1-22.39-5.44l-1.57-.82L14,106l3.85-21.11-.89-1.51A48.58,48.58,0,0,1,57.45,10.22h1.41a48.58,48.58,0,0,1,1.37,97.13l0,0Z" style="fill:#25d366"/><path d="M38.35,30.39a5.32,5.32,0,0,0-2.11.47,5.6,5.6,0,0,0-1.76,1.25,16.55,16.55,0,0,0-5.54,12.15c-.23,7.26,4.85,14.44,5.56,15.45S44.2,76.4,59,82.76c8.7,3.75,12.52,4.39,15,4.39,1,0,1.79-.11,2.59-.15,2.71-.17,8.83-3.3,10.17-6.71s1.42-6.39,1.07-7-1.32-1-2.77-1.79-8.59-4.58-9.93-5.11A4.56,4.56,0,0,0,73.54,66a2.13,2.13,0,0,0-1,.31,2.21,2.21,0,0,0-.75.74c-1.19,1.48-3.93,4.71-4.85,5.64a2.27,2.27,0,0,1-.72.55,2.09,2.09,0,0,1-.88.2A3.7,3.7,0,0,1,63.71,73a37.72,37.72,0,0,1-11.62-7.75,44.75,44.75,0,0,1-7.89-10.5c-.81-1.5,0-2.28.74-3s1.53-1.67,2.29-2.52a10,10,0,0,0,1.55-2.38,2.8,2.8,0,0,0,.31-1.3,2.68,2.68,0,0,0-.35-1.29c-.35-.75-3-8.14-4.21-11.1-1-2.53-2.19-2.62-3.24-2.69-.86-.06-1.84-.09-2.83-.12h-.13" style="fill:#25d366"/></svg>